<?xml version="1.0" standalone="no"?>
<!DOCTYPE svg PUBLIC "-//W3C//DTD SVG 20010904//EN"
 "http://www.w3.org/TR/2001/REC-SVG-20010904/DTD/svg10.dtd">
<svg version="1.0" xmlns="http://www.w3.org/2000/svg"
 width="700.000000pt" height="700.000000pt" viewBox="0 0 700.000000 700.000000"
 preserveAspectRatio="xMidYMid meet">
<metadata>
Created by potrace 1.14, written by Peter Selinger 2001-2017
</metadata>
<g transform="translate(0.000000,700.000000) scale(0.100000,-0.100000)"
fill="#000000" stroke="none">
<path d="M3115 6224 c-192 -29 -365 -93 -512 -189 -207 -136 -354 -278 -516
-501 -137 -191 -191 -242 -312 -300 -163 -79 -326 -103 -459 -69 -93 24 -204
74 -211 95 -10 32 -37 45 -94 46 -31 1 -73 5 -93 9 -33 7 -40 4 -69 -24 -26
-27 -30 -37 -25 -63 9 -44 21 -55 86 -79 l58 -21 52 -118 c143 -323 286 -437
610 -480 140 -19 344 -17 419 4 117 32 245 87 274 117 30 32 33 49 15 82 -28
53 -68 59 -150 23 -30 -14 -94 -37 -142 -51 -83 -27 -93 -27 -254 -23 -334 10
-470 76 -576 277 -20 39 -35 71 -33 71 2 0 39 -9 82 -20 94 -24 257 -27 357
-6 91 20 245 86 328 141 85 56 143 120 267 294 107 149 199 251 313 345 192
160 342 234 565 278 163 32 516 25 584 -12 11 -5 24 -25 30 -42 13 -42 31
-315 31 -480 0 -119 2 -129 23 -154 29 -34 80 -36 111 -4 20 20 21 30 19 193
-3 220 -19 431 -37 490 -21 69 -50 103 -119 137 -47 22 -85 32 -157 40 -132
13 -358 11 -465 -6z"/>
<path d="M5467 5546 c-91 -25 -138 -96 -152 -231 -9 -83 -31 -157 -56 -188
-11 -15 -42 -36 -69 -48 -56 -24 -76 -43 -85 -81 -6 -22 -1 -33 23 -58 17 -16
40 -30 52 -30 37 0 159 70 194 112 45 52 74 133 91 251 8 54 20 105 27 114 10
13 28 15 98 10 212 -14 359 -92 442 -237 15 -25 36 -88 47 -140 11 -52 39
-149 61 -215 22 -66 49 -166 60 -222 43 -223 50 -626 17 -958 -42 -412 -83
-525 -311 -849 -44 -63 -76 -119 -76 -133 0 -27 50 -83 74 -83 43 0 69 26 162
161 215 314 273 478 309 874 9 99 20 206 24 238 9 72 -5 521 -19 632 -19 141
-41 236 -90 390 -26 83 -57 190 -69 240 -24 100 -61 171 -134 251 -96 106
-220 166 -411 199 -105 18 -145 18 -209 1z"/>
<path d="M3680 5234 c-288 -77 -544 -250 -776 -526 -243 -290 -328 -522 -238
-651 47 -67 94 -88 184 -85 62 3 88 9 151 39 82 39 381 234 469 306 141 115
564 547 619 633 45 69 50 103 25 156 -23 47 -57 68 -139 84 -38 7 -81 20 -95
30 -23 16 -86 41 -99 39 -3 0 -49 -12 -101 -25z m150 -164 c25 -16 54 -30 65
-30 11 0 26 -4 34 -9 21 -13 -2 -40 -250 -291 l-213 -215 -6 46 c-11 85 -62
128 -117 98 -14 -8 -34 -13 -44 -11 -31 5 -76 -25 -94 -64 -25 -54 -31 -153
-12 -190 9 -17 23 -36 31 -44 14 -11 0 -24 -111 -98 -147 -97 -219 -134 -269
-135 -45 -1 -56 15 -51 79 12 165 323 553 580 722 113 74 209 119 323 151 90
25 82 25 134 -9z"/>
<path d="M4654 4950 c-205 -44 -456 -222 -620 -439 -131 -175 -248 -453 -280
-666 -63 -409 168 -721 494 -667 84 14 310 85 376 119 138 70 275 274 366 543
43 128 95 350 116 490 22 153 16 458 -10 507 -17 34 -69 68 -87 57 -6 -3 -42
8 -81 26 -57 26 -85 33 -151 36 -45 2 -100 -1 -123 -6z m204 -166 c21 -8 32
-20 32 -33 0 -11 15 -31 33 -45 32 -25 32 -26 35 -127 9 -255 -104 -717 -230
-936 -55 -96 -129 -178 -187 -208 -90 -45 -280 -97 -362 -99 -68 -1 -80 2
-125 29 -58 36 -107 105 -132 184 -26 84 -22 270 7 381 101 381 337 688 635
826 116 53 210 62 294 28z"/>
<path d="M4399 4095 c-57 -29 -78 -58 -115 -155 -24 -65 -28 -90 -28 -185 -1
-94 2 -117 22 -161 33 -73 80 -115 135 -121 40 -5 48 -2 85 31 45 41 98 153
108 231 4 24 13 50 20 56 18 15 18 51 -1 139 -19 91 -46 143 -88 169 -43 26
-79 25 -138 -4z m51 -274 c0 -57 -18 -131 -32 -131 -12 0 -10 114 3 166 15 58
29 40 29 -35z"/>
<path d="M5451 4401 c-29 -29 -35 -107 -28 -376 7 -270 26 -473 63 -672 5 -26
3 -33 -9 -33 -35 0 -67 -24 -83 -64 -32 -80 -85 -242 -104 -321 -24 -95 -26
-247 -6 -320 7 -28 19 -71 27 -97 12 -45 12 -49 -9 -75 -12 -16 -40 -64 -62
-108 -71 -143 -159 -296 -202 -352 -63 -83 -170 -176 -246 -216 -37 -20 -117
-50 -177 -67 -61 -18 -150 -48 -200 -67 -148 -58 -276 -48 -439 34 -154 77
-242 147 -280 221 -14 27 -14 31 3 46 10 10 31 43 45 76 46 103 65 200 76 394
5 99 13 207 16 238 5 52 4 59 -20 83 -42 42 -78 35 -149 -33 -34 -32 -83 -75
-108 -95 -46 -37 -331 -218 -336 -213 -1 1 3 20 9 42 16 54 16 251 0 290 -20
47 -78 68 -113 41 -30 -24 -36 -49 -31 -141 8 -150 -27 -248 -119 -336 -21
-20 -39 -43 -39 -51 0 -27 -277 -128 -505 -185 -133 -33 -664 -114 -840 -129
-85 -7 -297 8 -379 26 l-48 11 65 67 c138 141 215 320 247 581 17 140 13 217
-15 284 -13 33 -23 61 -22 62 1 1 58 39 127 84 165 109 274 191 510 381 280
224 373 321 455 472 41 74 41 101 3 137 -48 44 -90 20 -153 -88 -68 -117 -176
-224 -420 -415 -400 -315 -734 -531 -1019 -659 -178 -80 -328 -157 -368 -189
-20 -16 -42 -29 -47 -29 -23 0 -51 -41 -51 -74 0 -84 75 -359 125 -457 27 -52
207 -222 274 -257 72 -39 158 -62 231 -62 30 0 109 -7 175 -15 150 -19 329
-19 465 0 58 8 191 26 295 40 448 61 784 158 1070 309 107 56 388 229 494 303
35 24 65 43 66 41 8 -8 -17 -227 -31 -282 -21 -81 -62 -162 -91 -181 -12 -9
-23 -20 -23 -26 0 -6 -11 -25 -25 -41 -22 -26 -25 -37 -20 -72 3 -22 23 -167
45 -322 22 -154 40 -303 40 -331 0 -35 5 -55 18 -65 31 -28 276 -146 348 -167
116 -35 359 -72 514 -78 145 -5 228 2 490 42 116 18 102 10 270 149 182 150
235 234 285 446 20 82 34 121 51 137 12 12 25 31 29 43 3 11 -5 93 -20 182
-14 90 -34 226 -44 303 -18 137 -18 141 0 164 27 34 24 56 -23 172 -36 89 -42
117 -46 195 -2 50 1 115 7 145 15 75 73 259 81 259 3 0 14 -42 23 -94 23 -130
51 -199 101 -252 51 -53 98 -60 134 -21 32 34 28 76 -12 127 -40 51 -43 60
-96 339 -73 384 -104 718 -93 1001 5 117 4 127 -17 153 -26 33 -80 37 -109 8z
m-4180 -1609 c12 -43 -8 -247 -36 -357 -42 -167 -146 -307 -278 -375 l-67 -35
-80 80 c-91 90 -115 138 -156 313 -20 84 -22 107 -12 114 7 5 96 49 198 99
102 49 232 114 290 143 58 30 110 54 117 55 7 1 17 -16 24 -37z m4110 -997
c-6 -16 -26 -96 -45 -177 -57 -236 -70 -259 -241 -402 l-120 -100 -145 -25
c-121 -21 -178 -25 -345 -25 -175 -1 -218 3 -347 27 -80 14 -175 37 -210 50
-88 34 -208 95 -213 110 -2 7 -17 107 -33 223 l-28 212 51 -38 c63 -47 179
-114 259 -150 86 -39 190 -60 293 -60 73 0 103 6 173 31 47 17 150 51 229 75
78 25 166 56 195 71 146 73 324 248 393 387 14 28 41 79 61 114 l37 63 23
-178 c17 -133 21 -186 13 -208z"/>
<path d="M1092 2638 c-5 -7 -13 -40 -17 -73 -14 -110 -57 -207 -130 -295 -44
-52 -45 -93 -4 -98 48 -6 140 116 184 246 30 85 42 196 25 217 -15 18 -44 19
-58 3z"/>
<path d="M3066 2930 c-124 -42 -199 -85 -243 -138 -82 -98 -90 -126 -48 -167
42 -43 76 -34 136 35 57 64 95 85 219 119 52 15 89 19 122 15 41 -6 50 -3 72
19 35 35 35 85 1 117 -20 19 -38 24 -97 27 -61 3 -88 -2 -162 -27z"/>
</g>
</svg>
