<svg width="435" height="473" viewBox="0 0 435 473" fill="none" xmlns="http://www.w3.org/2000/svg">
<path fill-rule="evenodd" clip-rule="evenodd" d="M217.071 0C336.957 0 434.144 97.4755 434.144 217.717C434.143 306.22 381.489 382.388 305.886 416.432C305.869 416.626 305.843 416.822 305.804 417.018C304.955 421.24 303.982 425.507 303.82 429.825C303.7 433.026 304.08 436.363 305.804 439.132C306.525 440.291 307.466 441.241 308.488 442.138C310.679 444.081 310.869 447.444 308.926 449.635C306.981 451.826 303.647 452.017 301.457 450.073C299.89 448.67 298.458 447.157 297.285 445.405C292.336 438.009 293.162 429.384 294.743 421.078C286.387 424.291 277.783 427 268.967 429.169C270.667 435.882 272.722 442.48 275.024 449.021C275.947 451.637 274.576 454.519 271.961 455.441C269.345 456.363 266.495 454.993 265.572 452.377C263.13 445.46 260.938 438.456 259.123 431.349C253.918 432.373 248.647 433.212 243.316 433.856C242.73 436.84 242.036 439.867 240.978 442.72C238.476 449.466 232.964 457.957 224.581 456.403C220.6 455.665 218.167 453.082 216.033 449.84C214.816 447.99 213.68 446.111 212.824 444.062C211.671 441.303 210.835 438.355 210.335 435.327C203.332 435.113 196.413 434.567 189.593 433.703C189.373 440.158 187.672 446.238 184.903 452.261C183.235 455.889 181.13 459.329 178.339 462.21C176.048 464.575 173.351 466.508 170.462 468.073C163.708 471.732 155.939 473.285 148.406 471.37C143.74 470.184 139.437 467.777 135.744 464.718C131.072 460.849 127.304 455.999 124.22 450.802C118.883 441.81 115.391 431.647 114.097 421.277C113.736 418.37 115.799 415.715 118.706 415.354C121.612 414.994 124.268 417.058 124.628 419.965C125.667 428.383 128.399 436.626 132.535 444.033C135.14 448.699 138.379 453.145 142.513 456.578C145.283 458.879 148.54 460.703 152.111 461.363C156.455 462.167 160.82 461.141 164.715 459.176C166.932 458.055 169.046 456.645 170.783 454.856C172.939 452.636 174.439 449.906 175.685 447.097C176.603 445.024 177.427 442.927 178.019 440.737C178.802 437.835 179.123 434.956 179.087 432.108C144.166 425.927 112.125 411.374 85.0996 390.588C84.7306 391.132 84.3623 391.677 83.9883 392.219C82.0296 395.054 80.0037 397.848 77.9199 400.593C71.833 408.608 65.3287 416.296 59.3936 424.428C52.0291 434.517 45.5017 445.208 38.6504 455.645C37.0414 458.092 33.7455 458.772 31.2979 457.162C28.8503 455.554 28.1724 452.287 29.7812 449.84C36.7428 439.264 43.3926 428.435 50.874 418.213C56.863 410.031 63.4389 402.278 69.6045 394.231C72.1656 390.888 74.5942 387.481 76.9814 384.029C29.8971 344.093 0.000136846 284.407 0 217.717C0 97.4756 97.1859 0.000150986 217.071 0ZM231.18 434.978C227.761 435.197 224.321 435.338 220.861 435.397C221.411 437.776 222.266 440.087 223.502 442.195C224.033 443.103 224.645 443.992 225.252 444.851C225.486 445.182 225.722 445.549 226.011 445.842C226.117 445.95 226.222 446.021 226.361 446.075C226.373 446.079 226.425 446.09 226.456 446.098C226.477 446.091 226.519 446.082 226.536 446.075C226.59 446.051 226.629 446.048 226.682 446.018C226.827 445.932 226.964 445.838 227.09 445.726C227.657 445.217 228.14 444.658 228.578 444.033C229.933 442.099 230.921 439.828 231.554 437.557C231.634 437.27 231.68 436.969 231.758 436.682C231.479 436.15 231.272 435.579 231.18 434.978Z" fill="black"/>
<path fill-rule="evenodd" clip-rule="evenodd" d="M344.489 398.316C350.28 398.442 355.207 402.277 357.326 407.828C358.546 411.023 358.857 414.526 358.932 417.922C358.951 418.818 358.807 419.68 358.698 420.547C360.84 423.225 363.366 425.568 365.962 427.782C369.786 431.044 373.657 434.212 377.137 437.849C379.159 439.966 379.079 443.323 376.961 445.346C374.844 447.369 371.487 447.289 369.463 445.172C368.38 444.036 367.298 442.933 366.138 441.874C362.318 438.392 358.105 435.152 354.351 431.517C354.226 431.707 354.129 431.913 354.001 432.102C353.348 433.06 352.399 433.665 351.375 433.997C347.268 439.795 340.015 443.694 332.966 441.35C326.551 439.216 323.161 432.657 322.726 426.236C322.079 416.688 327.419 406.403 335.387 401.175C337.381 399.867 339.586 398.878 341.951 398.492C342.808 398.352 343.662 398.299 344.489 398.316ZM345.132 408.702C344.652 408.559 344.198 408.367 343.585 408.469C343.065 408.556 342.569 408.732 342.098 408.965C341.196 409.409 340.353 410.009 339.588 410.657C335.798 413.864 333.206 418.87 332.937 423.845C332.811 426.148 333.393 430.485 336.029 431.488C337.069 431.884 338.237 431.7 339.238 431.283C341.552 430.322 343.488 428.09 344.169 425.682C344.512 424.468 344.725 423.262 344.84 422.006C344.941 420.91 344.975 419.81 345.015 418.71C345.064 417.322 345.11 416.259 344.898 414.917C344.602 413.041 344.019 411.041 344.781 409.198C344.863 409 345.032 408.881 345.132 408.702Z" fill="black"/>
</svg>
