<svg width="498" height="538" viewBox="0 0 498 538" fill="none" xmlns="http://www.w3.org/2000/svg">
<path d="M248.512 16C376.924 16.0003 481.023 120.408 481.023 249.202C481.023 344.001 424.624 425.587 343.644 462.052C343.626 462.26 343.598 462.47 343.556 462.68C342.647 467.203 341.604 471.773 341.431 476.398C341.302 479.827 341.71 483.401 343.556 486.367C344.329 487.609 345.336 488.625 346.431 489.586C348.778 491.668 348.981 495.27 346.899 497.617C344.816 499.964 341.245 500.168 338.899 498.086C337.22 496.583 335.687 494.962 334.431 493.086C329.129 485.164 330.013 475.926 331.707 467.029C322.756 470.47 313.54 473.373 304.097 475.696C305.918 482.887 308.119 489.954 310.586 496.96C311.574 499.762 310.106 502.848 307.306 503.836C304.504 504.823 301.449 503.357 300.461 500.555C297.845 493.145 295.498 485.643 293.554 478.029C287.979 479.127 282.333 480.026 276.623 480.716C275.995 483.912 275.251 487.154 274.117 490.21C271.437 497.436 265.534 506.531 256.556 504.867C252.291 504.076 249.685 501.309 247.399 497.836C246.095 495.854 244.878 493.842 243.961 491.648C242.725 488.692 241.831 485.535 241.295 482.292C233.795 482.063 226.384 481.477 219.078 480.552C218.842 487.465 217.022 493.979 214.056 500.43C212.269 504.317 210.013 508 207.023 511.086C204.569 513.619 201.681 515.69 198.586 517.367C191.351 521.286 183.03 522.949 174.961 520.898C169.963 519.627 165.355 517.05 161.399 513.773C156.394 509.629 152.36 504.434 149.056 498.867C143.339 489.236 139.597 478.35 138.211 467.242C137.825 464.128 140.035 461.284 143.149 460.898C146.262 460.513 149.106 462.722 149.492 465.836C150.605 474.853 153.531 483.683 157.961 491.617C160.751 496.615 164.221 501.378 168.649 505.055C171.616 507.52 175.106 509.473 178.931 510.18C183.584 511.041 188.259 509.941 192.431 507.836C194.805 506.636 197.07 505.126 198.931 503.21C201.239 500.832 202.847 497.907 204.181 494.898C205.165 492.678 206.047 490.432 206.681 488.086C207.52 484.977 207.864 481.894 207.825 478.844C170.421 472.223 136.101 456.635 107.153 434.371C106.758 434.954 106.362 435.537 105.961 436.117C103.863 439.154 101.693 442.146 99.4609 445.086C92.9409 453.671 85.9746 461.907 79.6172 470.617C71.7289 481.424 64.7371 492.876 57.3984 504.055C55.6749 506.676 52.145 507.404 49.5234 505.68C46.9018 503.957 46.1751 500.457 47.8984 497.836C55.3551 486.508 62.4786 474.909 70.4922 463.96C76.9072 455.196 83.9516 446.892 90.5557 438.273C93.299 434.692 95.8991 431.042 98.4561 427.345C48.0227 384.568 16 320.635 16 249.202C16.0001 120.408 120.099 16 248.512 16ZM384.992 442.648C391.195 442.782 396.472 446.89 398.742 452.836C400.049 456.258 400.381 460.011 400.461 463.648C400.482 464.608 400.327 465.531 400.211 466.46C402.505 469.329 405.211 471.838 407.992 474.21C412.088 477.704 416.234 481.097 419.961 484.992C422.128 487.26 422.042 490.856 419.773 493.023C417.505 495.19 413.91 495.104 411.742 492.836C410.582 491.619 409.423 490.439 408.181 489.305C404.09 485.575 399.577 482.104 395.556 478.21C395.422 478.414 395.318 478.634 395.181 478.836C394.482 479.863 393.464 480.511 392.367 480.867C387.968 487.077 380.2 491.253 372.649 488.742C365.779 486.457 362.147 479.432 361.681 472.555C360.988 462.328 366.707 451.31 375.242 445.71C377.378 444.309 379.74 443.249 382.273 442.836C383.191 442.686 384.106 442.629 384.992 442.648ZM263.623 481.917C259.961 482.153 256.276 482.304 252.569 482.367C253.158 484.915 254.075 487.39 255.399 489.648C255.968 490.62 256.623 491.572 257.273 492.492C257.524 492.847 257.777 493.241 258.086 493.555C258.2 493.671 258.312 493.747 258.461 493.805C258.472 493.809 258.531 493.82 258.564 493.828C258.588 493.821 258.632 493.812 258.649 493.805C258.707 493.779 258.749 493.775 258.806 493.742C258.961 493.65 259.107 493.551 259.242 493.43C259.85 492.885 260.367 492.286 260.836 491.617C262.287 489.545 263.345 487.113 264.023 484.68C264.109 484.373 264.159 484.05 264.242 483.742C263.944 483.173 263.722 482.561 263.623 481.917ZM385.681 453.773C385.167 453.62 384.68 453.414 384.023 453.523C383.466 453.616 382.936 453.806 382.431 454.055C381.465 454.531 380.562 455.173 379.742 455.867C375.682 459.302 372.906 464.663 372.617 469.992C372.483 472.459 373.107 477.105 375.931 478.18C377.045 478.603 378.294 478.407 379.367 477.96C381.845 476.931 383.92 474.54 384.649 471.96C385.016 470.66 385.244 469.368 385.367 468.023C385.475 466.849 385.513 465.67 385.556 464.492C385.609 463.005 385.658 461.867 385.431 460.43C385.113 458.42 384.489 456.279 385.306 454.305C385.394 454.093 385.574 453.965 385.681 453.773Z" fill="black"/>
<path d="M481.023 249.202C481.023 120.408 376.924 16.0003 248.512 16C120.099 16 16.0001 120.408 16 249.202C16 320.635 48.0227 384.568 98.4561 427.345C95.8991 431.042 93.299 434.692 90.5557 438.273C83.9516 446.892 76.9072 455.196 70.4922 463.96C62.4786 474.909 55.3551 486.508 47.8984 497.836C46.1751 500.457 46.9018 503.957 49.5234 505.68C52.145 507.404 55.6749 506.676 57.3984 504.055C64.7371 492.876 71.7289 481.424 79.6172 470.617C85.9746 461.907 92.9409 453.671 99.4609 445.086C101.693 442.146 103.863 439.154 105.961 436.117C106.362 435.537 106.758 434.954 107.153 434.371C136.101 456.635 170.421 472.223 207.825 478.844C207.864 481.894 207.52 484.977 206.681 488.086C206.047 490.432 205.165 492.678 204.181 494.898C202.847 497.907 201.239 500.832 198.931 503.21C197.07 505.126 194.805 506.636 192.431 507.836C188.259 509.941 183.584 511.041 178.931 510.18C175.106 509.473 171.616 507.52 168.649 505.055C164.221 501.378 160.751 496.615 157.961 491.617C153.531 483.683 150.605 474.853 149.492 465.836C149.106 462.722 146.262 460.513 143.149 460.898C140.035 461.284 137.825 464.128 138.211 467.242C139.597 478.35 143.339 489.236 149.056 498.867C152.36 504.434 156.394 509.629 161.399 513.773C165.355 517.05 169.963 519.627 174.961 520.898C183.03 522.949 191.351 521.286 198.586 517.367C201.681 515.69 204.569 513.619 207.023 511.086C210.013 508 212.269 504.317 214.056 500.43C217.022 493.979 218.842 487.465 219.078 480.552C226.384 481.477 233.795 482.063 241.295 482.292C241.831 485.535 242.725 488.692 243.961 491.648C244.878 493.842 246.095 495.854 247.399 497.836C249.685 501.309 252.291 504.076 256.556 504.867C265.534 506.531 271.437 497.436 274.117 490.21C275.251 487.154 275.995 483.912 276.623 480.716C282.333 480.026 287.979 479.127 293.554 478.029C295.498 485.643 297.845 493.145 300.461 500.555C301.449 503.357 304.504 504.823 307.306 503.836C310.106 502.848 311.574 499.762 310.586 496.96C308.119 489.954 305.918 482.887 304.097 475.696C313.54 473.373 322.756 470.47 331.707 467.029C330.013 475.926 329.129 485.164 334.431 493.086C335.687 494.962 337.22 496.583 338.899 498.086C341.245 500.168 344.816 499.964 346.899 497.617C348.981 495.27 348.778 491.668 346.431 489.586C345.336 488.625 344.329 487.609 343.556 486.367C341.71 483.401 341.302 479.827 341.431 476.398C341.604 471.773 342.647 467.203 343.556 462.68C343.598 462.47 343.626 462.26 343.644 462.052C424.624 425.587 481.023 344.001 481.023 249.202ZM263.939 508.902C263.945 508.901 263.95 508.899 263.955 508.897C263.959 508.896 263.962 508.894 263.966 508.893C263.957 508.896 263.948 508.899 263.939 508.902ZM173.844 486.953C175.323 489.166 176.849 490.968 178.419 492.357L178.871 492.745L178.874 492.748C180.403 494.018 181.447 494.374 181.839 494.446H181.842C182.106 494.495 183.077 494.559 184.856 493.729L185.224 493.551C186.485 492.913 187.154 492.371 187.453 492.062C187.64 491.87 187.895 491.55 188.226 491.014C183.374 489.801 178.578 488.447 173.844 486.953ZM384.992 442.648C384.106 442.629 383.191 442.686 382.273 442.836C379.74 443.249 377.378 444.309 375.242 445.71C366.707 451.31 360.988 462.328 361.681 472.555C362.147 479.432 365.779 486.457 372.649 488.742C380.2 491.253 387.968 487.077 392.367 480.867C393.464 480.511 394.482 479.863 395.181 478.836C395.318 478.634 395.422 478.414 395.556 478.21C399.577 482.104 404.09 485.575 408.181 489.305C409.423 490.439 410.582 491.619 411.742 492.836C413.91 495.104 417.505 495.19 419.773 493.023C422.042 490.856 422.128 487.26 419.961 484.992C416.234 481.097 412.088 477.704 407.992 474.21C405.211 471.838 402.505 469.329 400.211 466.46C400.327 465.531 400.482 464.608 400.461 463.648C400.381 460.011 400.049 456.258 398.742 452.836C396.472 446.89 391.195 442.782 384.992 442.648ZM263.623 481.917C263.722 482.561 263.944 483.173 264.242 483.742C264.159 484.05 264.109 484.373 264.023 484.68C263.345 487.113 262.287 489.545 260.836 491.617C260.367 492.286 259.85 492.885 259.242 493.43C259.107 493.551 258.961 493.65 258.806 493.742C258.749 493.775 258.707 493.779 258.649 493.805C258.632 493.812 258.588 493.821 258.564 493.828C258.531 493.82 258.472 493.809 258.461 493.805C258.312 493.747 258.2 493.671 258.086 493.555C257.777 493.241 257.524 492.847 257.273 492.492C256.623 491.572 255.968 490.62 255.399 489.648C254.075 487.39 253.158 484.915 252.569 482.367C256.276 482.304 259.961 482.153 263.623 481.917ZM384.023 453.523C384.68 453.414 385.167 453.62 385.681 453.773C385.574 453.965 385.394 454.093 385.306 454.305C384.489 456.279 385.113 458.42 385.431 460.43C385.658 461.867 385.609 463.005 385.556 464.492C385.513 465.67 385.475 466.849 385.367 468.023C385.244 469.368 385.016 470.66 384.649 471.96C383.92 474.54 381.845 476.931 379.367 477.96C378.294 478.407 377.045 478.603 375.931 478.18C373.107 477.105 372.483 472.459 372.617 469.992C372.906 464.663 375.682 459.302 379.742 455.867C380.562 455.173 381.465 454.531 382.431 454.055C382.936 453.806 383.466 453.616 384.023 453.523ZM382.521 464.384L381.135 469.043L382.38 467.287L383.914 466.788L384.075 466.543L384.312 464.642C384.213 464.573 384.112 464.504 384.009 464.437L382.521 464.384ZM382.522 464.381L384.007 464.436C383.612 464.179 383.185 463.934 382.724 463.707L382.522 464.381ZM497.023 249.202C497.023 325.335 462.973 393.487 409.323 439.192C411.137 441.623 412.609 444.301 413.688 447.127C415.478 451.811 416.101 456.459 416.333 460.236C416.957 460.807 417.635 461.405 418.375 462.036L418.376 462.037C421.874 465.021 426.464 468.785 430.683 473.067L431.521 473.931L431.529 473.939C439.814 482.61 439.471 496.335 430.824 504.594C422.148 512.881 408.43 512.526 400.177 503.892L400.168 503.884L400.16 503.875C399.089 502.751 398.229 501.885 397.396 501.125C396.839 500.617 396.273 500.116 395.689 499.607C388.391 504.567 378.819 507.362 368.373 504.171L367.601 503.925C365.883 503.353 364.283 502.661 362.796 501.867C361.89 504.144 360.583 506.302 358.869 508.234L358.866 508.238C350.888 517.227 337.201 517.97 328.279 510.053L328.253 510.03L328.228 510.007C327.25 509.132 326.229 508.158 325.208 507.073C322.954 512.416 318.549 516.835 312.629 518.924L312.621 518.927C301.471 522.854 289.296 516.993 285.374 505.882L284.908 504.545C283.335 507.145 281.412 509.756 279.081 512.116C273.705 517.558 264.916 522.689 253.641 520.6L253.638 520.599C242.937 518.614 237.157 511.376 234.035 506.633L234.033 506.63C233.092 505.199 231.995 503.466 230.936 501.472C230.32 503.131 229.651 504.763 228.932 506.367L228.593 507.113C226.297 512.106 223.12 517.467 218.515 522.22L218.514 522.219C214.734 526.12 210.468 529.127 206.208 531.435L206.206 531.436C196.225 536.842 183.777 539.648 171.02 536.405H171.018C163.317 534.447 156.624 530.593 151.195 526.097C144.407 520.476 139.258 513.708 135.297 507.033C128.462 495.52 123.994 482.531 122.334 469.224L122.332 469.21C122.11 467.416 122.115 465.646 122.322 463.927C118.398 461.603 114.544 459.176 110.763 456.646C103.959 465.499 98.6601 471.666 92.541 480.05C84.9608 490.435 78.5007 501.064 70.7734 512.835L70.7686 512.844C64.1848 522.859 50.7311 525.621 40.7354 519.05C30.7432 512.482 27.9413 499.066 34.5293 489.046L34.5342 489.039C41.6187 478.276 49.2574 465.882 57.5811 454.51L58.79 452.874C64.6326 445.037 71.7419 436.444 77.0488 429.586C29.594 384.213 0 320.161 0 249.202C8.78357e-05 111.616 111.217 0 248.512 0L250.119 0.00488281C386.673 0.872273 497.023 112.154 497.023 249.202Z" fill="black"/>
</svg>
