<svg width="461" height="499" viewBox="0 0 461 499" fill="none" xmlns="http://www.w3.org/2000/svg">
<path d="M230.077 12C350.518 12 448.155 109.927 448.155 230.726C448.155 319.639 395.257 396.16 319.304 430.361C319.287 430.557 319.261 430.754 319.221 430.95C318.368 435.192 317.39 439.479 317.228 443.817C317.107 447.033 317.49 450.385 319.221 453.167C319.946 454.332 320.891 455.285 321.918 456.187C324.119 458.139 324.31 461.518 322.357 463.719C320.404 465.92 317.055 466.112 314.855 464.159C313.28 462.75 311.84 461.229 310.662 459.47C305.69 452.039 306.52 443.374 308.108 435.029C299.714 438.257 291.07 440.979 282.213 443.158C283.921 449.903 285.985 456.531 288.299 463.103C289.225 465.731 287.849 468.625 285.222 469.552C282.594 470.478 279.728 469.102 278.802 466.474C276.348 459.525 274.147 452.488 272.323 445.348C267.095 446.377 261.799 447.22 256.443 447.867C255.854 450.865 255.157 453.906 254.094 456.772C251.58 463.549 246.044 472.079 237.622 470.519C233.622 469.777 231.178 467.182 229.034 463.925C227.811 462.066 226.67 460.179 225.81 458.121C224.651 455.349 223.812 452.387 223.31 449.345C216.274 449.13 209.323 448.581 202.471 447.713C202.25 454.198 200.542 460.306 197.76 466.357C196.084 470.002 193.969 473.457 191.165 476.352C188.863 478.727 186.155 480.67 183.252 482.243C176.466 485.919 168.661 487.478 161.093 485.555C156.405 484.363 152.083 481.946 148.373 478.872C143.679 474.985 139.894 470.113 136.795 464.892C131.433 455.859 127.925 445.648 126.625 435.23C126.263 432.309 128.335 429.641 131.256 429.279C134.176 428.917 136.843 430.991 137.205 433.911C138.249 442.368 140.993 450.65 145.148 458.092C147.765 462.78 151.02 467.246 155.173 470.694C157.956 473.006 161.228 474.838 164.815 475.501C169.18 476.309 173.565 475.278 177.478 473.304C179.705 472.178 181.829 470.762 183.574 468.965C185.74 466.735 187.247 463.991 188.498 461.169C189.421 459.087 190.248 456.98 190.843 454.779C191.63 451.864 191.954 448.971 191.917 446.11C156.834 439.9 124.644 425.281 97.4932 404.399C97.1225 404.946 96.7528 405.493 96.377 406.037C94.4092 408.886 92.3737 411.692 90.2803 414.449C84.165 422.501 77.6307 430.226 71.668 438.396C64.2695 448.532 57.7122 459.272 50.8291 469.757C49.2127 472.216 45.9013 472.897 43.4424 471.28C40.9837 469.664 40.3026 466.383 41.9189 463.925C48.9127 453.3 55.5933 442.421 63.1094 432.151C69.126 423.932 75.7327 416.143 81.9268 408.06C84.4998 404.701 86.9396 401.277 89.3379 397.81C42.035 357.688 12.0001 297.725 12 230.726C12 109.927 109.636 12 230.077 12ZM358.086 412.162C363.904 412.288 368.853 416.141 370.982 421.718C372.208 424.927 372.52 428.447 372.595 431.858C372.614 432.759 372.469 433.625 372.36 434.496C374.512 437.187 377.05 439.541 379.658 441.766C383.5 445.043 387.388 448.225 390.884 451.878C392.916 454.005 392.835 457.378 390.707 459.41C388.58 461.443 385.208 461.362 383.175 459.234C382.087 458.093 381 456.985 379.834 455.922C375.997 452.424 371.764 449.169 367.993 445.517C367.868 445.708 367.77 445.914 367.642 446.104C366.986 447.067 366.032 447.675 365.003 448.009C360.877 453.833 353.591 457.75 346.509 455.395C340.065 453.251 336.658 446.662 336.221 440.212C335.571 430.62 340.936 420.287 348.941 415.034C350.945 413.72 353.16 412.726 355.535 412.339C356.396 412.198 357.255 412.144 358.086 412.162ZM244.251 448.994C240.816 449.215 237.36 449.355 233.884 449.415C234.436 451.805 235.296 454.127 236.538 456.245C237.072 457.157 237.685 458.05 238.295 458.912C238.53 459.245 238.768 459.614 239.058 459.908C239.164 460.017 239.27 460.088 239.409 460.143C239.42 460.147 239.475 460.158 239.507 460.165C239.529 460.159 239.57 460.15 239.586 460.143C239.64 460.118 239.679 460.116 239.732 460.085C239.879 459.999 240.015 459.904 240.142 459.791C240.712 459.28 241.197 458.719 241.637 458.092C242.998 456.149 243.99 453.866 244.626 451.584C244.707 451.296 244.754 450.994 244.832 450.705C244.552 450.171 244.344 449.598 244.251 448.994ZM358.73 422.597C358.249 422.453 357.793 422.26 357.177 422.362C356.654 422.45 356.156 422.627 355.683 422.86C354.777 423.307 353.93 423.91 353.161 424.561C349.353 427.782 346.75 432.811 346.479 437.809C346.353 440.122 346.938 444.479 349.586 445.487C350.631 445.885 351.803 445.702 352.81 445.282C355.134 444.317 357.08 442.075 357.764 439.655C358.108 438.436 358.322 437.224 358.438 435.962C358.539 434.861 358.573 433.755 358.613 432.65C358.663 431.256 358.709 430.189 358.496 428.84C358.198 426.955 357.613 424.946 358.379 423.095C358.461 422.896 358.63 422.777 358.73 422.597Z" fill="black"/>
<path d="M448.155 230.726C448.155 109.927 350.518 12 230.077 12C109.636 12 12 109.927 12 230.726C12.0001 297.725 42.035 357.688 89.3379 397.81C86.9396 401.277 84.4998 404.701 81.9268 408.06C75.7327 416.143 69.126 423.932 63.1094 432.151C55.5933 442.421 48.9127 453.3 41.9189 463.925C40.3026 466.383 40.9837 469.664 43.4424 471.28C45.9013 472.897 49.2127 472.216 50.8291 469.757C57.7122 459.272 64.2695 448.532 71.668 438.396C77.6307 430.226 84.165 422.501 90.2803 414.449C92.3737 411.692 94.4092 408.886 96.377 406.037C96.7528 405.493 97.1225 404.946 97.4932 404.399C124.644 425.281 156.834 439.9 191.917 446.11C191.954 448.971 191.63 451.864 190.843 454.779C190.248 456.98 189.421 459.087 188.498 461.169C187.247 463.991 185.74 466.735 183.574 468.965C181.829 470.762 179.705 472.178 177.478 473.304C173.565 475.278 169.18 476.309 164.815 475.501C161.228 474.838 157.956 473.006 155.173 470.694C151.02 467.246 147.765 462.78 145.148 458.092C140.993 450.65 138.249 442.368 137.205 433.911C136.843 430.991 134.176 428.917 131.256 429.279C128.335 429.641 126.263 432.309 126.625 435.23C127.925 445.648 131.433 455.859 136.795 464.892C139.894 470.113 143.679 474.985 148.373 478.872C152.083 481.946 156.405 484.363 161.093 485.555C168.661 487.478 176.466 485.919 183.252 482.243C186.155 480.67 188.863 478.727 191.165 476.352C193.969 473.457 196.084 470.002 197.76 466.357C200.542 460.306 202.25 454.198 202.471 447.713C209.323 448.581 216.274 449.13 223.31 449.345C223.812 452.387 224.651 455.349 225.81 458.121C226.67 460.179 227.811 462.066 229.034 463.925C231.178 467.182 233.622 469.777 237.622 470.519C246.044 472.079 251.58 463.549 254.094 456.772C255.157 453.906 255.854 450.865 256.443 447.867C261.799 447.22 267.095 446.377 272.323 445.348C274.147 452.488 276.348 459.525 278.802 466.474C279.728 469.102 282.594 470.478 285.222 469.552C287.842 468.627 289.218 465.745 288.305 463.122L290.119 462.483C290.118 462.481 290.117 462.478 290.116 462.476L290.117 462.479L290.119 462.483L288.305 463.122C288.302 463.116 288.301 463.109 288.299 463.103C285.985 456.531 283.921 449.903 282.213 443.158C291.07 440.979 299.714 438.257 308.108 435.029C306.52 443.374 305.69 452.039 310.662 459.47C311.84 461.229 313.28 462.75 314.855 464.159C317.055 466.112 320.404 465.92 322.357 463.719C324.31 461.518 324.119 458.139 321.918 456.187C320.891 455.285 319.946 454.332 319.221 453.167C317.49 450.385 317.107 447.033 317.228 443.817C317.39 439.479 318.368 435.192 319.221 430.95C319.261 430.754 319.287 430.557 319.304 430.361C395.257 396.16 448.155 319.639 448.155 230.726ZM153.685 448.42C154.19 449.52 154.733 450.603 155.31 451.666L155.626 452.241V452.243C157.8 456.138 160.193 459.265 162.839 461.462L162.841 461.464C164.545 462.88 165.984 463.514 166.997 463.701H166.999C168.086 463.902 169.779 463.747 172.072 462.59C173.465 461.885 174.392 461.195 174.966 460.604C175.689 459.859 176.508 458.605 177.527 456.306C177.652 456.024 177.77 455.749 177.884 455.481C169.638 453.563 161.563 451.2 153.685 448.42ZM358.086 412.162C357.255 412.144 356.396 412.198 355.535 412.339C353.16 412.726 350.945 413.72 348.941 415.034C340.936 420.287 335.571 430.62 336.221 440.212C336.658 446.662 340.065 453.251 346.509 455.395C353.591 457.75 360.877 453.833 365.003 448.009C366.032 447.675 366.986 447.067 367.642 446.104C367.77 445.914 367.868 445.708 367.993 445.517C371.764 449.169 375.997 452.424 379.834 455.922C381 456.985 382.087 458.093 383.175 459.234L382.201 460.161C382.203 460.163 382.205 460.166 382.207 460.168C382.206 460.166 382.205 460.164 382.203 460.162L383.175 459.234C385.208 461.362 388.58 461.443 390.707 459.41C392.835 457.378 392.916 454.005 390.884 451.878C387.388 448.225 383.5 445.043 379.658 441.766C377.05 439.541 374.512 437.187 372.36 434.496C372.469 433.625 372.614 432.759 372.595 431.858C372.52 428.447 372.208 424.927 370.982 421.718C368.853 416.141 363.904 412.288 358.086 412.162ZM244.251 448.994C244.344 449.598 244.552 450.171 244.832 450.705C244.754 450.994 244.707 451.296 244.626 451.584C243.99 453.866 242.998 456.149 241.637 458.092C241.197 458.719 240.712 459.28 240.142 459.791C240.015 459.904 239.879 459.999 239.732 460.085C239.679 460.116 239.64 460.118 239.586 460.143C239.57 460.15 239.529 460.159 239.507 460.165C239.475 460.158 239.42 460.147 239.409 460.143C239.27 460.088 239.164 460.017 239.058 459.908C238.768 459.614 238.53 459.245 238.295 458.912C237.685 458.05 237.072 457.157 236.538 456.245C235.296 454.127 234.436 451.805 233.884 449.415C237.36 449.355 240.816 449.215 244.251 448.994ZM382.203 460.162L382.201 460.161L383.175 459.234L382.203 460.162ZM357.177 422.362C357.793 422.26 358.249 422.453 358.73 422.597C358.63 422.777 358.461 422.896 358.379 423.095C357.613 424.946 358.198 426.955 358.496 428.84C358.709 430.189 358.663 431.256 358.613 432.65C358.573 433.755 358.539 434.861 358.438 435.962C358.322 437.224 358.108 438.436 357.764 439.655C357.08 442.075 355.134 444.317 352.81 445.282C351.803 445.702 350.631 445.885 349.586 445.487C346.938 444.479 346.353 440.122 346.479 437.809C346.75 432.811 349.353 427.782 353.161 424.561C353.93 423.91 354.777 423.307 355.683 422.86C356.156 422.627 356.654 422.45 357.177 422.362ZM460.146 232.922C459.488 303.588 427.147 366.655 376.69 408.538C379.066 411.118 380.939 414.153 382.193 417.438C383.91 421.933 384.39 426.441 384.541 430.026C385.41 430.859 386.373 431.721 387.445 432.636C390.79 435.489 394.964 438.911 398.793 442.798L399.554 443.582L399.561 443.588C406.184 450.52 405.904 461.489 398.995 468.088C392.063 474.71 381.098 474.429 374.5 467.526L374.494 467.521L374.488 467.514C373.466 466.442 372.604 465.57 371.746 464.787C370.643 463.782 369.506 462.804 368.276 461.757C361.702 466.918 352.602 470.066 342.723 466.781C339.958 465.862 337.551 464.564 335.472 463C334.957 466.127 333.583 469.147 331.335 471.682L331.332 471.685C324.958 478.865 314.023 479.464 306.89 473.135L306.87 473.118L306.851 473.101C304.806 471.27 302.602 469.001 300.69 466.146L300.689 466.144C300.642 466.073 300.596 466.001 300.55 465.931C300.103 472.507 295.851 478.526 289.214 480.868L289.209 480.87C280.316 484.002 270.609 479.326 267.484 470.464C266.545 467.803 265.637 465.119 264.77 462.413C263.116 466.453 260.5 471.268 256.61 475.205C252.027 479.845 244.736 484.041 235.436 482.317H235.434C226.608 480.68 221.783 474.734 219.011 470.522L219.01 470.521C217.655 468.462 216.03 465.84 214.738 462.749C214.482 462.136 214.238 461.516 214.007 460.893C213.517 460.859 213.027 460.823 212.537 460.786C211.549 464.444 210.227 467.964 208.662 471.368C206.606 475.841 203.8 480.555 199.783 484.701C196.488 488.103 192.746 490.747 188.969 492.794L188.968 492.795C180.121 497.587 169.221 500.002 158.137 497.185H158.135C151.421 495.477 145.535 492.103 140.72 488.115L140.159 487.644C134.773 483.059 130.535 477.632 127.161 472.15L126.476 471.017C120.275 460.571 116.223 448.781 114.718 436.715L114.716 436.705C114.455 434.601 114.585 432.536 115.047 430.583C109.976 427.642 105.028 424.513 100.212 421.205C100.086 421.371 99.9637 421.539 99.8379 421.705L99.8369 421.707C92.977 430.74 87.4633 437.108 81.3604 445.47C74.1929 455.289 68.0349 465.413 60.8604 476.342L60.8564 476.349C55.5923 484.357 44.8367 486.557 36.8506 481.307C28.8638 476.056 26.6282 465.338 31.8926 457.332L31.8955 457.327C38.6095 447.127 45.6771 435.65 53.4258 425.063C59.384 416.924 66.8587 407.994 72.4014 400.761C72.7 400.371 72.9969 399.979 73.293 399.586C28.5858 357.823 0.468607 298.389 0.00585938 232.381L0 230.726C0 103.333 102.975 2.83352e-05 230.077 0C357.179 0 460.155 103.333 460.155 230.726L460.146 232.922Z" fill="black"/>
</svg>
