<svg width="197" height="184" viewBox="0 0 197 184" fill="none" xmlns="http://www.w3.org/2000/svg">
<g filter="url(#filter0_d_7_578)">
<path d="M174.569 73.38C171.688 56.7653 164.989 46.559 141.238 24.842C127.025 11.8468 107.221 10.5907 91.4354 12.9727C80.1286 14.6788 67.5784 25.8639 52.4355 39.567C40.7483 50.1429 32.8488 68.2421 23.9352 88.2243C12.7043 113.401 15.5065 132.77 19.5544 144.495C21.4162 149.887 27.3019 152.246 34.2321 155.673C60.0745 168.452 80.5052 161.238 89.9878 159C100.709 156.469 108.601 153.778 124.548 146.871C141.917 139.347 151.432 132.632 162.805 122.61C170.507 115.824 176.883 98.6946 179.879 87.6776C182.41 78.3699 178.402 69.1094 176.455 62.0397C174.554 55.1395 167.763 50.9908 164.133 45.9752C160.785 41.3478 137.482 33.3138 122.528 28.9337C116.486 27.1637 109.473 30.7508 100.359 32.0915C93.9642 33.0322 90.151 37.166 84.6981 40.807C76.8296 46.061 67.924 56.9801 55.1716 78.7034C39.8811 104.75 35.9815 125.642 35.3619 128.727C34.037 135.325 35.8353 143.542 37.6093 151.582C38.2892 154.664 40.8978 156.899 43.5079 159.208C50.3765 165.283 64.5964 162.31 71.6401 160.986C79.3504 159.537 85.8687 156.282 92.6836 153.398C98.2035 151.062 104.39 146.634 110.357 142.774C116.866 138.565 122.507 133.888 128.825 130.17C134.44 126.865 139.882 120.867 146.899 116.987C154.352 112.865 157.675 105.883 161.255 99.5981C164.212 94.407 165.227 89.2701 164.711 84.8979C163.182 71.9415 156.094 68.449 152.915 64.4304C146.855 56.7716 135.626 46.7855 122.943 41.4416C107.588 34.9721 86.3314 41.4669 80.8034 42.1744C74.1403 43.0271 67.4338 48.8811 63.0885 54.437C58.0524 60.8759 50.5284 72.0994 41.1938 93.6046C37.6546 101.758 38.9827 108.87 36.5855 118.963C37.6225 122.542 38.7171 125.079 38.5651 127.52C38.4885 128.749 38.413 129.96 38.3353 131.208" stroke="#565491" stroke-width="24" stroke-linecap="round" shape-rendering="crispEdges"/>
</g>
<defs>
<filter id="filter0_d_7_578" x="0" y="0" width="196.692" height="183.051" filterUnits="userSpaceOnUse" color-interpolation-filters="sRGB">
<feFlood flood-opacity="0" result="BackgroundImageFix"/>
<feColorMatrix in="SourceAlpha" type="matrix" values="0 0 0 0 0 0 0 0 0 0 0 0 0 0 0 0 0 0 127 0" result="hardAlpha"/>
<feOffset dy="4"/>
<feGaussianBlur stdDeviation="2"/>
<feComposite in2="hardAlpha" operator="out"/>
<feColorMatrix type="matrix" values="0 0 0 0 0 0 0 0 0 0 0 0 0 0 0 0 0 0 0.25 0"/>
<feBlend mode="normal" in2="BackgroundImageFix" result="effect1_dropShadow_7_578"/>
<feBlend mode="normal" in="SourceGraphic" in2="effect1_dropShadow_7_578" result="shape"/>
</filter>
</defs>
</svg>
